<svg width="147" height="175" viewBox="0 0 147 175" fill="none" xmlns="http://www.w3.org/2000/svg">
<path d="M1.728 0H38.336C40.768 0 38.464 0.896004 38.464 0.896004C38.464 0.896004 28.992 6.01601 28.992 16.128V159C28.992 169.112 38.464 174.232 38.464 174.232C38.464 174.232 40.768 175 38.336 175H1.728C-0.576 175 -0.576 175 1.728 174.232C5.696 172.824 11.072 169.112 11.072 159V16.128C11.072 6.01601 5.696 2.304 1.728 0.896004C-0.576 0.128006 -0.576 0 1.728 0Z" fill="white"/>
<path d="M108.978 0H145.586C148.018 0 145.714 0.896004 145.714 0.896004C145.714 0.896004 136.242 6.01601 136.242 16.128V159C136.242 169.112 145.714 174.232 145.714 174.232C145.714 174.232 148.018 175 145.586 175H108.978C106.674 175 106.674 175 108.978 174.232C112.946 172.824 118.322 169.112 118.322 159V16.128C118.322 6.01601 112.946 2.304 108.978 0.896004C106.674 0.128006 106.674 0 108.978 0Z" fill="white"/>
<path d="M28 27H118.5" stroke="white" stroke-width="6"/>
<path d="M73 63L77.95 87.4263L101.579 79.5L82.9 96L101.579 112.5L77.95 104.574L73 129L68.05 104.574L44.4212 112.5L63.1 96L44.4212 79.5L68.05 87.4263L73 63Z" fill="white"/>
</svg>
