<svg width="252" height="130" viewBox="0 0 252 130" fill="none" xmlns="http://www.w3.org/2000/svg">
<path d="M120 64.9349C120 100.851 93.0931 130 59.9399 130C26.9069 130 1.38319e-06 100.851 1.38319e-06 64.9349C1.38319e-06 29.1491 26.9069 0 59.9399 0C93.0931 0 120 29.1491 120 64.9349ZM116.637 64.9349C116.637 39.1692 91.2913 18.3484 59.9399 18.3484C28.7087 18.3484 3.36336 39.1692 3.36336 64.9349C3.36336 90.8308 28.7087 111.652 59.9399 111.652C91.2913 111.652 116.637 90.8308 116.637 64.9349Z" fill="#1B1917"/>
<path d="M60 25L65.6569 59.3431L100 65L65.6569 70.6569L60 105L54.3431 70.6569L20 65L54.3431 59.3431L60 25Z" fill="#1B1917"/>
<path d="M119 60.0976L241.929 60.0976C247.978 60.0976 251 57 251 57C251 57 251.5 56.5 251.5 57V74C251.5 75.3432 251.459 75.3432 251 74C250.158 71.6866 247.978 70.545 241.929 70.545H210.307C204.259 70.545 127.807 70.545 119 70.545V60.0976Z" fill="#1B1917"/>
<path d="M191.493 70V94.6961C191.493 97.3946 195.575 98.7951 195.575 98.7951C195.575 98.7951 196.567 99 195.519 99H179.745C178.752 99 178.752 99 179.745 98.7951C181.454 98.4193 183.771 97.3946 183.771 94.6961V70C183.74 70 183.74 70 183.771 70L191.493 70Z" fill="#1B1917"/>
<path d="M221.493 70V94.6961C221.493 97.3946 225.575 98.7951 225.575 98.7951C225.575 98.7951 226.567 99 225.519 99H209.745C208.752 99 208.752 99 209.745 98.7951C211.454 98.4193 213.771 97.3946 213.771 94.6961V70C213.74 70 213.74 70 213.771 70L221.493 70Z" fill="#1B1917"/>
</svg>
