<svg width="38" height="23" viewBox="0 0 38 23" fill="none" xmlns="http://www.w3.org/2000/svg">
<circle cx="19.089" cy="11.3779" r="9" stroke="black" stroke-width="2"/>
<path d="M18.5889 2.37787C10.2258 2.57726 6.86767 3.9751 1.58895 11.8779" stroke="black" stroke-width="2"/>
<path d="M19.4 2.37787C27.7632 2.57726 31.1213 3.9751 36.4 11.8779" stroke="black" stroke-width="2"/>
<path d="M18.5889 20.3779C10.2258 20.1785 6.86767 18.7807 1.58894 10.8779" stroke="black" stroke-width="2"/>
<path d="M19.4 20.3779C27.7632 20.1785 31.1213 18.7807 36.4 10.8779" stroke="black" stroke-width="2"/>
<path d="M19 6L19.574 9.61418L22.5355 7.46447L20.3858 10.426L24 11L20.3858 11.574L22.5355 14.5355L19.574 12.3858L19 16L18.426 12.3858L15.4645 14.5355L17.6142 11.574L14 11L17.6142 10.426L15.4645 7.46447L18.426 9.61418L19 6Z" fill="black"/>
</svg>
