<svg width="211" height="131" viewBox="0 0 211 131" fill="none" xmlns="http://www.w3.org/2000/svg">
<path d="M43 65.4012C43 28.6434 67.7967 1 104.5 1C141.203 1 168.749 28.6434 168.749 65.4012C168.749 102.159 141.203 131 104.5 131C67.7967 131 43 102.159 43 65.4012ZM46.7493 65.2036C46.7493 86.5468 69.9674 118.5 104.5 118.5C139.23 118.5 165 86.5468 165 65.2036C165 43.8603 139.23 12.5 104.5 12.5C69.9674 12.5 46.7493 43.8603 46.7493 65.2036Z" fill="white"/>
<path d="M45 65.2036C45 28.4458 68.2968 0 105 0C141.703 0 210.249 28.4398 210.249 65.1976C210.249 101.955 141.703 131 105 131C68.2968 131 45 101.961 45 65.2036ZM45 65.2036C45 86.5468 70.4674 120.5 105 120.5C139.73 120.5 208 86.5409 208 65.1976C208 43.8544 139.73 10 105 10C70.4674 10 45 43.8603 45 65.2036Z" fill="white"/>
<path d="M165 65.5095C165 28.7517 141.703 0.00952148 105 0.00952148C68.2968 0.00952148 4.57764e-05 28.4493 4.57764e-05 65.2071C4.57764e-05 101.965 68.2968 131 105 131C141.703 131 165 102.267 165 65.5095ZM165 65.5095C165 86.8528 139.533 121.5 105 121.5C70.2701 121.5 2.00006 86.5504 2.00006 65.2071C2.00006 43.8639 70.2701 9.50952 105 9.50952C139.533 9.50952 165 44.1663 165 65.5095Z" fill="white"/>
<path d="M105 24L109.707 53.6363L133.991 36.0086L116.364 60.293L146 65L116.364 69.707L133.991 93.9914L109.707 76.3637L105 106L100.293 76.3637L76.0086 93.9914L93.6363 69.707L64 65L93.6363 60.293L76.0086 36.0086L100.293 53.6363L105 24Z" fill="white"/>
</svg>
