<svg width="211" height="131" viewBox="0 0 211 131" fill="none" xmlns="http://www.w3.org/2000/svg">
<path d="M42.9999 65.4012C42.9999 28.6434 67.7967 1 104.5 1C141.203 1 168.749 28.6434 168.749 65.4012C168.749 102.159 141.203 131 104.5 131C67.7967 131 42.9999 102.159 42.9999 65.4012ZM46.7492 65.2036C46.7492 86.5468 69.9673 118.5 104.5 118.5C139.23 118.5 165 86.5468 165 65.2036C165 43.8603 139.23 12.5 104.5 12.5C69.9673 12.5 46.7492 43.8603 46.7492 65.2036Z" fill="#1B1917"/>
<path d="M44.9999 65.2036C44.9999 28.4458 68.2967 0 105 0C141.703 0 210.249 28.4398 210.249 65.1976C210.249 101.955 141.703 131 105 131C68.2967 131 44.9999 101.961 44.9999 65.2036ZM44.9999 65.2036C44.9999 86.5468 70.4674 120.5 105 120.5C139.73 120.5 208 86.5409 208 65.1976C208 43.8544 139.73 10 105 10C70.4674 10 44.9999 43.8603 44.9999 65.2036Z" fill="#1B1917"/>
<path d="M165 65.5095C165 28.7517 141.703 0.00952148 105 0.00952148C68.2967 0.00952148 -1.52588e-05 28.4493 -1.52588e-05 65.2071C-1.52588e-05 101.965 68.2967 131 105 131C141.703 131 165 102.267 165 65.5095ZM165 65.5095C165 86.8528 139.533 121.5 105 121.5C70.27 121.5 2 86.5504 2 65.2071C2 43.8639 70.27 9.50952 105 9.50952C139.533 9.50952 165 44.1663 165 65.5095Z" fill="#1B1917"/>
<path d="M105 24L109.707 53.6363L133.991 36.0086L116.364 60.293L146 65L116.364 69.707L133.991 93.9914L109.707 76.3637L105 106L100.293 76.3637L76.0086 93.9914L93.6362 69.707L63.9999 65L93.6362 60.293L76.0086 36.0086L100.293 53.6363L105 24Z" fill="#1B1917"/>
</svg>
